<svg width="23" height="18" viewBox="0 0 23 18" fill="none" xmlns="http://www.w3.org/2000/svg">
<path d="M21.7756 2.4C21.5464 2.2 21.2026 2.1 20.8588 2.1H5.04278L4.81356 0.9C4.81356 0.4 4.24052 0 3.66747 0H1.14609C0.458434 0 0 0.4 0 1C0 1.6 0.458434 2 1.14609 2H2.75061L4.92817 13.2V13.3C4.92817 13.4 4.92817 13.4 5.04278 13.5C5.04278 13.6 5.15739 13.6 5.15739 13.7L5.27199 13.8C5.3866 13.9 5.3866 13.9 5.50121 13.9C5.50121 13.9 5.61582 13.9 5.61582 14C5.73043 14 5.84504 14.1 6.07425 14.1H18.6812C19.3688 14.1 19.8273 13.7 19.8273 13.1C19.8273 12.5 19.3688 12.1 18.6812 12.1H6.99112L6.76191 11.1H19.7127C20.2857 11.1 20.7442 10.7 20.8588 10.2L22.0048 3.2C22.1195 2.9 22.0048 2.6 21.7756 2.4ZM19.5981 4L19.2542 6H15.1283V4H19.5981ZM13.9822 4V6H10.544V4H13.9822ZM13.9822 7V9H10.544V7H13.9822ZM9.3979 4V6H5.95965C5.84504 6 5.84504 6 5.84504 6L5.50121 4H9.3979ZM6.07425 7H9.51251V9H6.41808L6.07425 7ZM15.1283 9V7H19.025L18.6812 9H15.1283Z" fill="white"/>
<path d="M7.79335 18C8.7428 18 9.51248 17.3284 9.51248 16.5C9.51248 15.6716 8.7428 15 7.79335 15C6.8439 15 6.07422 15.6716 6.07422 16.5C6.07422 17.3284 6.8439 18 7.79335 18Z" fill="white"/>
<path d="M18.1098 18C19.0592 18 19.8289 17.3284 19.8289 16.5C19.8289 15.6716 19.0592 15 18.1098 15C17.1603 15 16.3906 15.6716 16.3906 16.5C16.3906 17.3284 17.1603 18 18.1098 18Z" fill="white"/>
</svg>
