<?xml version="1.0" encoding="UTF-8"?>
<!DOCTYPE svg PUBLIC "-//W3C//DTD SVG 1.1//EN" "http://www.w3.org/Graphics/SVG/1.1/DTD/svg11.dtd">
<!-- Creator: CorelDRAW X8 -->
<svg xmlns="http://www.w3.org/2000/svg" xml:space="preserve" width="100%" height="100%" version="1.1" shape-rendering="geometricPrecision" text-rendering="geometricPrecision" image-rendering="optimizeQuality" fill-rule="evenodd" clip-rule="evenodd"
viewBox="0 0 21000 21000"
 xmlns:xlink="http://www.w3.org/1999/xlink">
 <g id="Layer_x0020_1">
  <metadata id="CorelCorpID_0Corel-Layer"/>
  <g id="_2301235491504">
   <path fill="#7D3DAF" fill-rule="nonzero" d="M20972 18872c0,1162 -938,2100 -2100,2100l-16758 0c-1148,0 -2086,-938 -2086,-2100l0 -16758c0,-1148 938,-2086 2086,-2086l16758 0c1162,0 2100,938 2100,2086l0 16758z"/>
   <g>
    <path fill="white" d="M17141 6769l-4 -16c-335,-1357 -1847,-2812 -3236,-3115l-16 -3c-2246,-428 -4524,-428 -6770,0l-16 3c-1389,303 -2901,1758 -3237,3115l-3 16c-415,1894 -415,3815 0,5709l3 16c322,1298 1722,2687 3059,3069l0 1513c0,548 667,817 1047,422l1534 -1594c332,18 665,29 998,29 1131,0 2262,-107 3385,-322l16 -3c1389,-303 2901,-1758 3236,-3114l4 -16c415,-1894 415,-3815 0,-5709zm-1213 5434c-224,885 -1373,1985 -2285,2188 -1194,227 -2398,324 -3601,291 -24,-1 -47,8 -63,25 -171,176 -1120,1150 -1120,1150l-1192 1223c-87,90 -240,29 -240,-97l0 -2508c0,-41 -29,-76 -70,-84 0,0 0,0 -1,0 -912,-204 -2060,-1303 -2284,-2188 -373,-1712 -373,-3447 0,-5159 224,-885 1372,-1985 2284,-2188 2086,-397 4202,-397 6287,0 913,203 2061,1303 2285,2188 373,1712 373,3447 0,5159z"/>
    <path fill="white" d="M12485 13360c-141,-42 -274,-71 -398,-122 -1287,-534 -2471,-1222 -3408,-2278 -534,-600 -951,-1278 -1304,-1995 -167,-340 -308,-693 -452,-1044 -131,-321 62,-651 265,-893 191,-226 436,-399 702,-527 208,-100 412,-42 564,134 327,380 628,780 872,1220 150,271 109,603 -163,787 -66,45 -126,97 -188,148 -53,44 -104,89 -141,149 -68,110 -71,240 -27,360 334,920 899,1635 1825,2021 148,61 297,133 468,113 286,-33 378,-347 578,-511 196,-160 447,-162 658,-29 211,134 415,277 618,422 200,142 399,282 583,444 177,156 238,360 138,572 -182,387 -448,709 -831,915 -108,58 -237,77 -359,114 -141,-42 122,-37 0,0z"/>
    <path fill="white" d="M10504 6058c1682,47 3064,1164 3360,2827 51,284 69,574 91,861 10,121 -59,236 -190,238 -134,1 -195,-111 -204,-232 -17,-240 -29,-480 -62,-718 -174,-1253 -1174,-2290 -2421,-2513 -188,-33 -380,-42 -571,-62 -120,-13 -277,-20 -304,-169 -22,-126 84,-225 203,-232 32,-1 65,0 98,0 1682,47 -33,0 0,0z"/>
    <path fill="white" d="M13061 9373c-3,21 -5,70 -17,117 -45,169 -301,190 -360,19 -17,-50 -20,-108 -20,-162 0,-357 -78,-713 -258,-1023 -184,-318 -467,-586 -798,-748 -200,-98 -416,-159 -636,-196 -96,-15 -193,-25 -289,-38 -117,-17 -179,-91 -173,-206 5,-108 84,-186 201,-179 386,22 759,105 1102,287 699,370 1097,954 1214,1733 5,35 13,70 16,105 7,88 11,176 18,291 -3,21 -7,-115 0,0z"/>
    <path fill="white" d="M12014 9332c-141,3 -216,-75 -231,-204 -10,-90 -18,-181 -39,-269 -42,-172 -134,-332 -279,-438 -69,-50 -146,-86 -228,-110 -103,-29 -210,-21 -313,-46 -112,-28 -174,-118 -156,-223 16,-96 109,-171 213,-163 652,47 1119,384 1185,1152 5,55 10,112 -2,164 -20,88 -86,133 -150,137 -141,3 64,-4 0,0z"/>
   </g>
  </g>
 </g>
</svg>
