<?xml version="1.0" encoding="UTF-8"?>
<!DOCTYPE svg PUBLIC "-//W3C//DTD SVG 1.1//EN" "http://www.w3.org/Graphics/SVG/1.1/DTD/svg11.dtd">
<!-- Creator: CorelDRAW X8 -->
<svg xmlns="http://www.w3.org/2000/svg" xml:space="preserve" width="100%" height="100%" version="1.1" shape-rendering="geometricPrecision" text-rendering="geometricPrecision" image-rendering="optimizeQuality" fill-rule="evenodd" clip-rule="evenodd"
viewBox="0 0 21000 21000"
 xmlns:xlink="http://www.w3.org/1999/xlink">
 <g id="Layer_x0020_1">
  <metadata id="CorelCorpID_0Corel-Layer"/>
  <path fill="#6A747C" fill-rule="nonzero" d="M10500 18270c3920,0 5670,-3122 5670,-6216 0,-4354 -3024,-9310 -5670,-9310 -2646,0 -5670,4956 -5670,9310 0,3094 1750,6216 5670,6216zm10472 602c0,1162 -938,2100 -2100,2100l-16758 0c-1148,0 -2086,-938 -2086,-2100l0 -16758c0,-1148 938,-2086 2086,-2086l16758 0c1162,0 2100,938 2100,2086l0 16758z"/>
  <path fill="#FEFEFE" fill-rule="nonzero" d="M16170 12068c0,-4354 -3024,-9324 -5670,-9324 -2646,0 -5670,4970 -5670,9324 0,3094 1750,6202 5670,6202 3920,0 5670,-3108 5670,-6202z"/>
 </g>
</svg>
