<?xml version="1.0" encoding="UTF-8"?>
<!DOCTYPE svg PUBLIC "-//W3C//DTD SVG 1.1//EN" "http://www.w3.org/Graphics/SVG/1.1/DTD/svg11.dtd">
<!-- Creator: CorelDRAW X8 -->
<svg xmlns="http://www.w3.org/2000/svg" xml:space="preserve" width="100%" height="100%" version="1.1" shape-rendering="geometricPrecision" text-rendering="geometricPrecision" image-rendering="optimizeQuality" fill-rule="evenodd" clip-rule="evenodd"
viewBox="0 0 1500 1500"
 xmlns:xlink="http://www.w3.org/1999/xlink">
 <g id="Layer_x0020_1">
  <metadata id="CorelCorpID_0Corel-Layer"/>
  <g id="_1771621483216">
   <path fill="#E31E24" fill-rule="nonzero" d="M750 1305c280,0 405,-223 405,-444 0,-311 -216,-665 -405,-665 -189,0 -405,354 -405,665 0,221 125,444 405,444zm748 43c0,83 -67,150 -150,150l-1197 0c-82,0 -149,-67 -149,-150l0 -1197c0,-82 67,-149 149,-149l1197 0c83,0 150,67 150,149l0 1197z"/>
   <path fill="#FEFEFE" fill-rule="nonzero" d="M1155 862c0,-311 -216,-666 -405,-666 -189,0 -405,355 -405,666 0,221 125,443 405,443 280,0 405,-222 405,-443z"/>
  </g>
 </g>
</svg>
