<?xml version="1.0" encoding="UTF-8"?>
<!DOCTYPE svg PUBLIC "-//W3C//DTD SVG 1.1//EN" "http://www.w3.org/Graphics/SVG/1.1/DTD/svg11.dtd">
<!-- Creator: CorelDRAW X8 -->
<svg xmlns="http://www.w3.org/2000/svg" xml:space="preserve" width="100%" height="100%" version="1.1" shape-rendering="geometricPrecision" text-rendering="geometricPrecision" image-rendering="optimizeQuality" fill-rule="evenodd" clip-rule="evenodd"
viewBox="0 0 14700 14800"
 xmlns:xlink="http://www.w3.org/1999/xlink">
 <g id="Layer_x0020_1">
  <metadata id="CorelCorpID_0Corel-Layer"/>
  <path fill="#6A747C" fill-rule="nonzero" d="M11414 11389c-1082,1082 -2521,1677 -4051,1677 -896,0 -1753,-201 -2549,-597l-515 -256 -2265 536 477 -2314 -253 -497c-414,-809 -623,-1684 -623,-2600 0,-1530 596,-2969 1678,-4051 1072,-1072 2534,-1677 4050,-1677 1531,0 2969,596 4051,1677 1082,1082 1678,2521 1678,4051 0,1516 -606,2978 -1678,4051zm-500 -2464l-1417 -407c-187,-54 -387,-1 -523,137l-346 353c-147,149 -368,197 -562,119 -670,-271 -2080,-1525 -2440,-2152 -104,-181 -87,-407 41,-572l302 -392c119,-153 144,-359 65,-536l-596 -1349c-143,-323 -555,-417 -825,-189 -396,335 -865,843 -922,1406 -100,993 325,2245 1936,3747 1860,1737 3349,1966 4319,1731 550,-133 990,-667 1267,-1105 190,-298 40,-694 -299,-791zm-3450 -8902l-203 0c-85,1 -170,4 -255,8 -3896,185 -6970,3430 -6958,7330 3,1188 290,2309 796,3299l-777 3771c-37,181 104,342 278,342l2 0c21,0 43,-3 65,-8l3694 -875c949,473 2015,746 3144,763 3981,61 7301,-3101 7426,-7081 128,-4113 -3140,-7493 -7212,-7549z"/>
 </g>
</svg>
