<?xml version="1.0" encoding="UTF-8"?>
<!DOCTYPE svg PUBLIC "-//W3C//DTD SVG 1.1//EN" "http://www.w3.org/Graphics/SVG/1.1/DTD/svg11.dtd">
<!-- Creator: CorelDRAW X8 -->
<svg xmlns="http://www.w3.org/2000/svg" xml:space="preserve" width="100%" height="100%" version="1.1" shape-rendering="geometricPrecision" text-rendering="geometricPrecision" image-rendering="optimizeQuality" fill-rule="evenodd" clip-rule="evenodd"
viewBox="0 0 12862 12862"
 xmlns:xlink="http://www.w3.org/1999/xlink">
 <g id="Layer_x0020_1">
  <metadata id="CorelCorpID_0Corel-Layer"/>
  <polygon fill="#6A747C" fill-rule="nonzero" points="-7,12852 12854,12852 12854,-10 -7,-10 "/>
  <path fill="white" fill-rule="nonzero" d="M10120 2829l-8601 3352c-278,108 -261,508 25,593l2186 645 816 2588c85,270 427,352 626,150l1130 -1154 2217 1628c271,199 658,51 726,-279l1469 -7020c72,-344 -267,-631 -594,-503zm-1078 1558l-3995 3533c-40,35 -65,84 -71,136l-154 1368c-5,44 -68,50 -81,7l-633 -2039c-29,-93 9,-194 92,-246l4718 -2926c108,-67 219,82 124,167z"/>
 </g>
</svg>
