<svg width="18" height="18" viewBox="0 0 18 18" fill="none" xmlns="http://www.w3.org/2000/svg">
<path d="M9.01055 15.6599C12.3705 15.6599 13.8705 12.9839 13.8705 10.3319C13.8705 6.59993 11.2785 2.35193 9.01055 2.35193C6.74255 2.35193 4.15055 6.59993 4.15055 10.3319C4.15055 12.9839 5.65055 15.6599 9.01055 15.6599ZM17.9865 16.1759C17.9865 17.1719 17.1825 17.9759 16.1865 17.9759H1.82255C0.838546 17.9759 0.0345459 17.1719 0.0345459 16.1759V1.81193C0.0345459 0.827926 0.838546 0.0239258 1.82255 0.0239258H16.1865C17.1825 0.0239258 17.9865 0.827926 17.9865 1.81193V16.1759Z" fill="#E31E24"/>
<path d="M13.8679 10.3441C13.8679 6.61205 11.2759 2.35205 9.00795 2.35205C6.73995 2.35205 4.14795 6.61205 4.14795 10.3441C4.14795 12.9961 5.64795 15.6601 9.00795 15.6601C12.3679 15.6601 13.8679 12.9961 13.8679 10.3441Z" fill="#FEFEFE"/>
</svg>
