<svg width="26" height="22" viewBox="0 0 26 22" fill="none" xmlns="http://www.w3.org/2000/svg">
<path d="M9.54654 4.87949H24.6047L20.128 14.0529H9.13957L3.84885 1.5437H1" stroke="white" stroke-width="2" stroke-linecap="round" stroke-linejoin="round"/>
<path d="M10.5791 19.0567C10.5791 19.9091 9.91077 20.5585 9.13718 20.5585C8.36359 20.5585 7.69531 19.9091 7.69531 19.0567C7.69531 18.2042 8.36359 17.5548 9.13718 17.5548C9.91077 17.5548 10.5791 18.2042 10.5791 19.0567Z" stroke="white" stroke-width="2"/>
<path d="M21.1605 19.0566C21.1605 19.9091 20.4922 20.5584 19.7186 20.5584C18.945 20.5584 18.2767 19.9091 18.2767 19.0566C18.2767 18.2041 18.945 17.5548 19.7186 17.5548C20.4922 17.5548 21.1605 18.2041 21.1605 19.0566Z" stroke="white" stroke-width="2"/>
</svg>
