<svg xmlns="http://www.w3.org/2000/svg" xmlns:xlink="http://www.w3.org/1999/xlink">
<path fill-rule="evenodd" fill="rgb(169, 169, 169)"
 d="M3.632,18.000 C2.658,18.000 1.742,17.613 1.053,16.911 C-0.370,15.462 -0.370,13.104 1.053,11.655 L9.237,3.318 C10.203,2.334 11.775,2.334 12.740,3.318 C13.706,4.301 13.706,5.902 12.740,6.886 L6.720,13.019 C6.481,13.263 6.093,13.263 5.854,13.019 C5.614,12.775 5.614,12.380 5.854,12.136 L11.874,6.003 C12.362,5.506 12.362,4.697 11.874,4.200 C11.637,3.959 11.323,3.826 10.989,3.826 C10.654,3.826 10.340,3.959 10.104,4.200 L1.919,12.538 C0.974,13.500 0.974,15.066 1.919,16.029 C2.377,16.495 2.985,16.752 3.632,16.752 C4.279,16.752 4.888,16.495 5.345,16.029 L13.722,7.495 C14.401,6.803 14.775,5.884 14.775,4.906 C14.775,3.928 14.401,3.009 13.722,2.317 C12.321,0.889 10.041,0.890 8.640,2.317 L2.427,8.646 C2.188,8.890 1.800,8.890 1.561,8.646 C1.322,8.402 1.322,8.007 1.561,7.764 L7.773,1.435 C9.652,-0.479 12.710,-0.479 14.588,1.435 C15.499,2.362 16.000,3.594 16.000,4.906 C16.000,6.217 15.499,7.450 14.588,8.377 L6.212,16.911 C5.523,17.613 4.607,18.000 3.632,18.000 Z"/>
</svg>