<svg xmlns="http://www.w3.org/2000/svg" xmlns:xlink="http://www.w3.org/1999/xlink">
<path fill-rule="evenodd" opacity="0.761" fill="rgb(255, 255, 255)"
 d="M42.000,40.132 L40.132,41.999 L26.160,28.018 C20.234,33.030 11.554,33.030 5.629,28.018 C-1.072,22.350 -1.908,12.325 3.761,5.627 C9.431,-1.072 19.459,-1.908 26.160,3.760 C32.861,9.427 33.697,19.452 28.027,26.151 L42.000,40.132 ZM29.153,15.903 C29.153,8.591 23.223,2.663 15.909,2.663 C8.594,2.663 2.664,8.591 2.664,15.903 C2.664,23.216 8.594,29.143 15.909,29.143 C23.223,29.143 29.153,23.216 29.153,15.903 ZM17.233,22.523 L14.584,22.523 L14.584,17.227 L9.287,17.227 L9.287,14.579 L14.584,14.579 L14.584,9.283 L17.233,9.283 L17.233,14.579 L22.531,14.579 L22.531,17.227 L17.233,17.227 L17.233,22.523 Z"/>
</svg>