<svg width="13" height="13" viewBox="0 0 13 13" fill="none" xmlns="http://www.w3.org/2000/svg">
<path d="M5.89163 4.29295C5.76784 4.37806 5.6686 4.49421 5.60386 4.62977C5.54894 4.73061 5.45702 4.80619 5.34747 4.8406C5.23793 4.87501 5.1193 4.86556 5.01659 4.81424C4.91387 4.76292 4.83508 4.67374 4.79682 4.56548C4.75855 4.45722 4.7638 4.33833 4.81145 4.23386C4.92963 3.99632 5.11459 3.74577 5.40059 3.5555C5.68895 3.36227 6.05354 3.25 6.50027 3.25C6.88909 3.25 7.30922 3.36523 7.64309 3.61577C7.82922 3.75184 7.98016 3.93039 8.08336 4.13657C8.18655 4.34275 8.239 4.57059 8.23636 4.80114C8.23636 5.41155 7.93322 5.8175 7.6295 6.11C7.51722 6.21814 7.39372 6.32155 7.28736 6.41018L7.2005 6.48286C7.10935 6.55741 7.02347 6.63817 6.94345 6.72455V7.53409C6.94345 7.65163 6.89676 7.76436 6.81365 7.84747C6.73053 7.93058 6.61781 7.97727 6.50027 7.97727C6.38273 7.97727 6.27 7.93058 6.18689 7.84747C6.10378 7.76436 6.05709 7.65163 6.05709 7.53409V6.66368C6.05709 6.52364 6.09668 6.36586 6.20304 6.22877C6.33304 6.06332 6.49022 5.92327 6.62731 5.80686L6.73545 5.71645L6.73604 5.71586C6.83768 5.63136 6.9275 5.55632 7.01377 5.47241C7.23122 5.26264 7.35 5.07295 7.35 4.80114C7.35261 4.70821 7.33217 4.61609 7.29052 4.53298C7.24886 4.44988 7.18728 4.37838 7.11127 4.32486C6.95291 4.20609 6.72718 4.13636 6.50027 4.13636C6.20836 4.13636 6.01927 4.20786 5.89163 4.29295ZM7.09118 9.45455C7.09118 9.61126 7.02892 9.76157 6.9181 9.87238C6.80729 9.9832 6.65699 10.0455 6.50027 10.0455C6.34355 10.0455 6.19325 9.9832 6.08243 9.87238C5.97162 9.76157 5.90936 9.61126 5.90936 9.45455C5.90936 9.29783 5.97162 9.14753 6.08243 9.03671C6.19325 8.92589 6.34355 8.86364 6.50027 8.86364C6.65699 8.86364 6.80729 8.92589 6.9181 9.03671C7.02892 9.14753 7.09118 9.29783 7.09118 9.45455Z" fill="#C4C4C4"/>
<path fill-rule="evenodd" clip-rule="evenodd" d="M6.5 0C2.91023 0 0 2.91023 0 6.5C0 10.0898 2.91023 13 6.5 13C10.0898 13 13 10.0898 13 6.5C13 2.91023 10.0898 0 6.5 0ZM0.886364 6.5C0.886364 5.01117 1.4778 3.58332 2.53056 2.53056C3.58332 1.4778 5.01117 0.886364 6.5 0.886364C7.98883 0.886364 9.41668 1.4778 10.4694 2.53056C11.5222 3.58332 12.1136 5.01117 12.1136 6.5C12.1136 7.98883 11.5222 9.41668 10.4694 10.4694C9.41668 11.5222 7.98883 12.1136 6.5 12.1136C5.01117 12.1136 3.58332 11.5222 2.53056 10.4694C1.4778 9.41668 0.886364 7.98883 0.886364 6.5Z" fill="#C4C4C4"/>
</svg>
