<svg xmlns="http://www.w3.org/2000/svg" viewBox="0 0 135.1 41"><defs><style>.a{fill:#fff;}</style></defs><title>logo</title><circle class="a" cx="28.3" cy="19.1" r="4"/><path class="a" d="M44.7,9.4L29.3,0.5a2.6,2.6,0,0,0-2.6,0l-1,.6a2.4,2.4,0,0,0-4.3.7,2.4,2.4,0,0,0,.2,1.7l-1.5.8a3.1,3.1,0,0,1-5.3,3.1l-3.5,2A2.6,2.6,0,0,0,10,11.7v0.5a1.8,1.8,0,0,0,0,3.6V29.5a2.6,2.6,0,0,0,1.3,2.2l15.4,8.9a2.6,2.6,0,0,0,2.6,0l15.4-8.9A2.6,2.6,0,0,0,46,29.5V11.7A2.6,2.6,0,0,0,44.7,9.4ZM13.1,18.7a1,1,0,1,1,1-.8A1,1,0,0,1,13.1,18.7Zm1.2-4.2A1.9,1.9,0,1,1,16.1,13,1.9,1.9,0,0,1,14.3,14.5ZM32,5.1a1.1,1.1,0,1,1-1.1.9A1.1,1.1,0,0,1,32,5.1ZM28.5,2.5a1.4,1.4,0,1,1-1.4,1.1A1.4,1.4,0,0,1,28.5,2.5ZM23.9,4.9a0.9,0.9,0,1,1-.9.8A0.9,0.9,0,0,1,23.9,4.9Zm4.6,21.3a5.9,5.9,0,0,1-3.6-.9c-0.1-.1-0.2-0.1-0.2,0a1.7,1.7,0,0,0,0,.6v3a1.5,1.5,0,0,1-.8,1.2,1.7,1.7,0,0,1-2.3-.6,1.5,1.5,0,0,1-.1-0.6V19.5a10.6,10.6,0,0,1,0-1.2,7.3,7.3,0,0,1,2.7-4.9,6.7,6.7,0,0,1,3.3-1.3,7.9,7.9,0,0,1,4.1.5,6.6,6.6,0,0,1,3.8,5.4,8,8,0,0,1,0,.9,6.8,6.8,0,0,1-6.8,7.3h0Z"/><circle class="a" cx="5.9" cy="8.8" r="2.1"/><circle class="a" cx="8.6" cy="2.5" r="1.7"/><circle class="a" cx="16.2" cy="3.7" r="3"/><circle class="a" cx="5.4" cy="17.2" r="1.3"/><circle class="a" cx="7.5" cy="22.2" r="1"/><circle class="a" cx="1.1" cy="13.7" r="1"/><circle class="a" cx="0.9" cy="5.5" r="0.9"/><path class="a" d="M70.9,26.2H68.4V17.8H64.7v8.4H62.2V15.9h8.7V26.2Z"/><path class="a" d="M75.2,22.7v3.5H72.8V15.9h4.1a4.8,4.8,0,0,1,2.1.4,3.3,3.3,0,0,1,1.4,1.2,3.4,3.4,0,0,1,.5,1.8,3,3,0,0,1-1.1,2.4,4.5,4.5,0,0,1-3,.9H75.2Zm0-1.9h1.6a1.5,1.5,0,0,0,1.1-.4,1.3,1.3,0,0,0,.4-1,1.7,1.7,0,0,0-.4-1.2,1.4,1.4,0,0,0-1.1-.4H75.2v3Z"/><path class="a" d="M88.9,21.8H85v2.5h4.6v1.9H82.6V15.9h7.1v1.9H85V20h3.9v1.8Z"/><path class="a" d="M94.3,15.9L96.6,23l2.3-7.2h3.3V26.2H99.6V23.8l0.2-4.9-2.5,7.3H95.7l-2.5-7.3,0.2,4.9v2.4H91V15.9h3.3Z"/><path class="a" d="M110.1,15.9h2.5V26.2h-2.5V19.7l-3.7,6.5h-2.5V15.9h2.5v6.5Z"/><path class="a" d="M118.4,20.3h0l1.7-4.5h2.6L119.3,24a4.3,4.3,0,0,1-1.3,1.7,2.9,2.9,0,0,1-1.6.5h-0.9V24.4H116l0.9-.2a1.4,1.4,0,0,0,.5-0.8V23.1l-3.7-7.2h2.6Z"/><path class="a" d="M127.2,15.9l2.3,7.2,2.3-7.2h3.3V26.2h-2.5V23.8l0.2-4.9-2.5,7.3h-1.6l-2.5-7.3,0.2,4.9v2.4H124V15.9h3.3Z"/></svg>
