<svg width="12" height="16" viewBox="0 0 12 16" fill="none" xmlns="http://www.w3.org/2000/svg">
<path d="M9.92162 1.93085C8.85364 0.926886 7.70239 0.122172 6.75689 0.0118723C6.70357 0.00418294 6.64975 0.000219314 6.59584 1.21402e-05H0.37722C0.327608 -0.00038276 0.278418 0.00886013 0.232558 0.0271943C0.186699 0.0455284 0.145102 0.0725815 0.110226 0.106754C0.0399662 0.175652 0.000393676 0.268475 0 0.365306V15.6353C-6.5448e-08 15.6832 0.00976128 15.7307 0.0287259 15.775C0.0476904 15.8193 0.0754861 15.8595 0.110522 15.8934C0.145558 15.9273 0.187147 15.9541 0.23291 15.9724C0.278673 15.9907 0.327712 16.0001 0.37722 16H11.6228C11.6722 16.0001 11.7211 15.9907 11.7667 15.9724C11.8123 15.9541 11.8537 15.9272 11.8885 15.8933C11.9238 15.8595 11.9518 15.8193 11.9709 15.7751C11.99 15.7308 11.9999 15.6833 12 15.6353V5.47408C11.978 4.29399 11.0239 3.00835 9.92162 1.93085ZM9.39069 2.44795C9.88365 2.91406 10.3276 3.44184 10.6583 3.95064C10.3751 3.84528 10.0845 3.75967 9.78873 3.69446C9.25918 3.58365 8.72153 3.51287 8.18065 3.48276C8.1831 3.40448 8.18371 3.31553 8.18371 3.21887C8.18371 2.70295 8.15003 1.9688 7.96571 1.32124L7.95958 1.30345C8.47627 1.63591 8.95588 2.01947 9.39069 2.44795ZM11.2443 15.2688H0.753215V0.727635H6.59645V0.729414C6.85119 0.714589 7.07103 0.958315 7.23944 1.51574C7.39253 2.04649 7.43111 2.73853 7.4305 3.21768C7.43172 3.56993 7.41396 3.80595 7.41396 3.80595L7.38334 4.19259L7.78506 4.19674C7.7869 4.19674 8.71341 4.20741 9.62217 4.40726C10.4954 4.5899 11.1776 4.95401 11.2419 5.36615C11.2449 5.40292 11.2456 5.43969 11.2449 5.47408V15.267L11.2443 15.2688Z" fill="#9E9E9E"/>
</svg>
