<svg width="13" height="13" viewBox="0 0 13 13" fill="none" xmlns="http://www.w3.org/2000/svg">
<path d="M3.53307 5.53307C4.33412 4.73202 5.7312 4.73202 6.53225 5.53307L7.03211 6.03293L8.03184 5.03321L7.53198 4.53334C6.86526 3.86592 5.97724 3.49756 5.03266 3.49756C4.08808 3.49756 3.20006 3.86592 2.53334 4.53334L1.03305 6.03293C0.371484 6.69662 0 7.59551 0 8.5326C0 9.4697 0.371484 10.3686 1.03305 11.0323C1.36101 11.3607 1.75065 11.6211 2.17956 11.7985C2.60848 11.9759 3.06821 12.0668 3.53236 12.0659C3.99664 12.0669 4.45652 11.9761 4.88557 11.7987C5.31461 11.6213 5.70436 11.3608 6.03239 11.0323L6.53225 10.5324L5.53252 9.53268L5.03266 10.0325C4.63423 10.4292 4.09492 10.6519 3.53272 10.6519C2.97051 10.6519 2.4312 10.4292 2.03277 10.0325C1.63578 9.6343 1.41286 9.09492 1.41286 8.5326C1.41286 7.97029 1.63578 7.4309 2.03277 7.03266L3.53307 5.53307Z" fill="#808080"/>
<path d="M6.03266 1.03363L5.53279 1.53349L6.53252 2.53322L7.03238 2.03336C7.43081 1.63671 7.97012 1.41403 8.53233 1.41403C9.09453 1.41403 9.63384 1.63671 10.0323 2.03336C10.4293 2.4316 10.6522 2.97098 10.6522 3.5333C10.6522 4.09562 10.4293 4.635 10.0323 5.03324L8.53197 6.53283C7.73092 7.33389 6.33385 7.33389 5.53279 6.53283L5.03293 6.03297L4.0332 7.03269L4.53307 7.53256C5.19979 8.19999 6.0878 8.56834 7.03238 8.56834C7.97696 8.56834 8.86498 8.19999 9.5317 7.53256L11.032 6.03297C11.6936 5.36928 12.065 4.4704 12.065 3.5333C12.065 2.5962 11.6936 1.69732 11.032 1.03363C10.3685 0.371722 9.46954 0 8.53233 0C7.59511 0 6.69616 0.371722 6.03266 1.03363Z" fill="#808080"/>
</svg>
